<svg xmlns="http://www.w3.org/2000/svg" viewBox="0 0 160 160">
<defs><linearGradient id="fur" x2="0" y2="1"><stop stop-color="#c89f78"/><stop offset="1" stop-color="#8a6042"/></linearGradient><linearGradient id="vest" x2="0" y2="1"><stop stop-color="#83909a"/><stop offset="1" stop-color="#4e5961"/></linearGradient></defs>
<ellipse cx="80" cy="143" rx="46" ry="8" fill="#080605" opacity=".28"/>
<path d="M114 109c20-1 25 15 12 23" fill="none" stroke="#8a6042" stroke-width="12" stroke-linecap="round"/>
<path d="M37 105c5-17 21-25 43-25 25 0 41 10 44 29l-9 27H45z" fill="url(#vest)" stroke="#241a15" stroke-width="5"/>
<path d="m46 103 75 5m-52-24-4 51m36-49 5 49" stroke="#37434a" stroke-width="5"/><path d="M53 109h19v13H53zm38-1h21v18H91z" fill="#aebbc3" stroke="#46535a" stroke-width="3"/>
<path d="M55 133v12m52-12v12" stroke="#80583e" stroke-width="14" stroke-linecap="round"/>
<path d="M42 104 24 109" stroke="#b58a65" stroke-width="14" stroke-linecap="round"/><path d="m19 98 43-10 6 15-44 11z" fill="#596b77" stroke="#202c33" stroke-width="5"/><path d="m20 100-12 4 2 7 14-1" fill="#b4c8d1" stroke="#202c33" stroke-width="4"/><path d="m54 102 3 18" stroke="#27343c" stroke-width="8" stroke-linecap="round"/>
<path d="M46 50c-12-12-20 1-13 18 4 9 12 13 20 11m61-29c12-12 20 1 13 18-4 9-12 13-20 11" fill="url(#fur)" stroke="#4d3322" stroke-width="5"/>
<path d="M39 65c0-27 16-44 41-44 26 0 42 17 42 44 0 26-16 42-42 42-25 0-41-16-41-42z" fill="url(#fur)" stroke="#4d3322" stroke-width="5"/>
<path d="M54 46c8-10 18-14 26-14s19 4 27 14" fill="none" stroke="#755035" stroke-width="6" stroke-linecap="round"/>
<path d="M52 73c3-15 13-23 28-23 16 0 26 8 29 23-2 20-12 30-29 30-16 0-26-10-28-30z" fill="#efe2d2"/>
<path d="M55 80c9-4 16-4 25 1 9-5 17-5 26-1-2 13-10 20-26 20s-24-7-25-20z" fill="#dbc8b3"/>
<ellipse cx="65" cy="62" rx="5" ry="6" fill="#1b1410"/><ellipse cx="96" cy="62" rx="5" ry="6" fill="#1b1410"/><circle cx="63" cy="60" r="1.5" fill="#fff"/><circle cx="94" cy="60" r="1.5" fill="#fff"/>
<path d="m72 75 8-5 8 5-8 7z" fill="#1b1410"/><path d="M72 88h16" stroke="#6a4530" stroke-width="4" stroke-linecap="round"/>
<path d="M59 102c14 8 29 8 43 0" fill="none" stroke="#202b31" stroke-width="9"/><circle cx="80" cy="106" r="5" fill="#ffd970" stroke="#7c5715" stroke-width="2"/>
</svg>
