<svg xmlns="http://www.w3.org/2000/svg" viewBox="0 0 160 160">
<defs><linearGradient id="feather" x2="0" y2="1"><stop stop-color="#44515e"/><stop offset=".55" stop-color="#222a31"/><stop offset="1" stop-color="#11161a"/></linearGradient></defs>
<ellipse cx="79" cy="143" rx="39" ry="7" fill="#050607" opacity=".3"/>
<path d="M48 89c-22 3-30 21-22 38l27-14m59-24c22 3 30 21 22 38l-27-14" fill="url(#feather)" stroke="#0b0e11" stroke-width="5"/>
<path d="M48 92c7-14 21-21 34-20 18 0 31 11 34 28l-9 35H52l-10-30z" fill="url(#feather)" stroke="#0b0e11" stroke-width="5"/>
<path d="M54 101h57l-5 22H58z" fill="#684b48" stroke="#2e2222" stroke-width="4"/><path d="M58 133 52 146m48-13 7 13" stroke="#d4a33c" stroke-width="7" stroke-linecap="round"/>
<path d="M48 102 28 108" stroke="#343e48" stroke-width="10" stroke-linecap="round"/><path d="m22 98 37-9 6 14-39 10z" fill="#596b77" stroke="#202b32" stroke-width="5"/><path d="m22 100-13 4 2 7 16-1" fill="#abc0ca" stroke="#202b32" stroke-width="4"/>
<path d="M51 54c0-22 13-35 31-35 19 0 32 13 32 35 0 23-13 38-32 38-18 0-31-15-31-38z" fill="url(#feather)" stroke="#0b0e11" stroke-width="5"/>
<path d="m98 56 35 12-34 13c5-8 5-17-1-25z" fill="#e0ad45" stroke="#76551d" stroke-width="5" stroke-linejoin="round"/><path d="m104 67 24 1" stroke="#ffe08a" stroke-width="3"/>
<path d="M57 45c8-9 17-13 25-13" stroke="#657483" stroke-width="5" stroke-linecap="round"/><ellipse cx="72" cy="52" rx="5" ry="6" fill="#f6ead2"/><circle cx="73" cy="52" r="2" fill="#080b0e"/>
<path d="M70 24 79 9l7 15m-2 0L98 12l-4 19" fill="#2e3841" stroke="#0b0e11" stroke-width="4"/>
</svg>
