<svg xmlns="http://www.w3.org/2000/svg" viewBox="0 0 160 160">
<defs><radialGradient id="fur"><stop stop-color="#ffd49a"/><stop offset=".7" stop-color="#e6964a"/><stop offset="1" stop-color="#a95b27"/></radialGradient><linearGradient id="vest" x2="0" y2="1"><stop stop-color="#7b91a0"/><stop offset="1" stop-color="#465966"/></linearGradient></defs>
<ellipse cx="80" cy="143" rx="44" ry="8" fill="#080605" opacity=".28"/>
<path d="M112 103c27-4 35 21 17 31" fill="none" stroke="#d77d35" stroke-width="14" stroke-linecap="round"/>
<path d="M42 100c4-17 20-25 38-25 22 0 38 11 40 32l-7 29H48l-9-26z" fill="url(#vest)" stroke="#2a1a12" stroke-width="5"/>
<path d="m49 101 68 5m-47-27-3 56m31-54 5 54" stroke="#30434e" stroke-width="5"/><path d="M56 109h18v12H56zm34-1h20v17H90z" fill="#a9bec8" stroke="#3e5360" stroke-width="3"/>
<path d="M57 133v12m48-12v12" stroke="#d77d35" stroke-width="13" stroke-linecap="round"/>
<path d="M44 103 24 108" stroke="#e9994d" stroke-width="13" stroke-linecap="round"/><path d="m20 97 40-9 6 14-42 11z" fill="#536773" stroke="#1e2b32" stroke-width="5"/><path d="m20 99-12 4 2 7 15-1" fill="#b2c8d1" stroke="#1e2b32" stroke-width="4"/><path d="m52 102 3 17" stroke="#25343c" stroke-width="7" stroke-linecap="round"/>
<path d="m48 51 6-34 22 27m36 7-6-34-22 27" fill="#e79749" stroke="#6e361a" stroke-width="5" stroke-linejoin="round"/>
<path d="M38 61c0-8 5-14 12-17-3-8 4-16 13-15 3-10 15-13 22-6 7-6 19-2 21 8 10-1 16 8 12 17 7 4 9 13 5 20 4 9-2 19-11 21-3 10-14 14-22 9-8 8-21 6-26-3-10 4-20-3-20-13-9-4-10-16-3-22-2-2-3-5-3-9z" fill="url(#fur)" stroke="#6e361a" stroke-width="5"/>
<path d="M57 72c3-14 12-22 23-22 12 0 21 8 24 22-2 18-11 28-24 28-12 0-21-10-23-28z" fill="#fff0d8"/>
<ellipse cx="67" cy="61" rx="5" ry="6" fill="#17110e"/><ellipse cx="94" cy="61" rx="5" ry="6" fill="#17110e"/><circle cx="65" cy="59" r="1.5" fill="#fff"/><circle cx="92" cy="59" r="1.5" fill="#fff"/>
<path d="m74 74 6-4 7 4-7 6z" fill="#17110e"/><path d="M69 83c7 6 15 6 22 0" fill="none" stroke="#74401f" stroke-width="3" stroke-linecap="round"/>
<path d="M61 100c12 7 26 7 38 0" fill="none" stroke="#202c33" stroke-width="8"/><circle cx="80" cy="103" r="5" fill="#ffd970" stroke="#7c5715" stroke-width="2"/>
</svg>
