<svg xmlns="http://www.w3.org/2000/svg" viewBox="0 0 160 160">
<defs><linearGradient id="fur" x2="0" y2="1"><stop stop-color="#aaa198"/><stop offset="1" stop-color="#6b625c"/></linearGradient><linearGradient id="armor" x2="0" y2="1"><stop stop-color="#788690"/><stop offset="1" stop-color="#46535b"/></linearGradient></defs>
<ellipse cx="80" cy="143" rx="42" ry="8" fill="#070605" opacity=".3"/>
<path d="M111 108c29 0 38 23 20 34" fill="none" stroke="#68605a" stroke-width="13" stroke-linecap="round"/><path d="M115 112c21 2 26 15 17 23" fill="none" stroke="#292827" stroke-width="7" stroke-linecap="round"/>
<path d="M44 99c6-15 21-22 37-21 21 0 35 11 38 29l-8 29H50l-10-26z" fill="url(#armor)" stroke="#231d19" stroke-width="5"/>
<path d="m49 102 67 4m-45-24-4 53m31-50 5 50" stroke="#34434b" stroke-width="5"/><path d="M56 109h18v12H56zm34-1h20v17H90z" fill="#adbec6" stroke="#48565e" stroke-width="3"/>
<path d="M57 133v12m48-12v12" stroke="#6f6761" stroke-width="12" stroke-linecap="round"/>
<path d="M44 102 24 107" stroke="#878078" stroke-width="12" stroke-linecap="round"/><path d="m20 96 40-9 6 15-42 11z" fill="#536773" stroke="#1e2b32" stroke-width="5"/><path d="m20 99-12 4 2 7 15-1" fill="#b2c8d1" stroke="#1e2b32" stroke-width="4"/>
<path d="m47 52 8-35 22 27m36 8-8-35-22 27" fill="url(#fur)" stroke="#403a35" stroke-width="5" stroke-linejoin="round"/>
<path d="M44 61c0-25 15-41 36-41 22 0 37 16 37 41 0 26-15 43-37 43-21 0-36-17-36-43z" fill="url(#fur)" stroke="#403a35" stroke-width="5"/>
<path d="M50 57c8-12 19-17 30-17 12 0 23 5 31 17l-5 20c-8-6-17-9-26-9s-18 3-26 9z" fill="#292a2b"/>
<path d="M57 76c3-13 12-20 23-20 12 0 21 7 24 20-2 17-11 26-24 26-12 0-21-9-23-26z" fill="#ddd5cc"/>
<ellipse cx="67" cy="63" rx="5" ry="6" fill="#f6f0e8"/><ellipse cx="94" cy="63" rx="5" ry="6" fill="#f6f0e8"/><circle cx="67" cy="64" r="2" fill="#111"/><circle cx="94" cy="64" r="2" fill="#111"/>
<path d="m74 77 6-5 7 5-7 6z" fill="#17110e"/><path d="M69 86c7 6 15 6 22 0" fill="none" stroke="#4b4540" stroke-width="3"/>
</svg>
