<svg xmlns="http://www.w3.org/2000/svg" viewBox="0 0 160 160">
<rect width="160" height="160" rx="24" fill="#160f12"/>
<ellipse cx="80" cy="132" rx="42" ry="10" fill="#080607" opacity="0.35"/>
<circle cx="58" cy="44" r="14" fill="#8d7d81" stroke="#453d40" stroke-width="4"/>
<circle cx="102" cy="44" r="14" fill="#8d7d81" stroke="#453d40" stroke-width="4"/>
<ellipse cx="80" cy="72" rx="34" ry="36" fill="#9c8a8f" stroke="#4b4246" stroke-width="4"/>
<ellipse cx="80" cy="84" rx="22" ry="14" fill="#d8ccd0"/>
<circle cx="68" cy="68" r="4" fill="#1b1410"/>
<circle cx="92" cy="68" r="4" fill="#1b1410"/>
<circle cx="80" cy="79" r="4" fill="#9b6060"/>
<rect x="46" y="94" width="68" height="28" rx="10" fill="#5d4342" stroke="#352726" stroke-width="4"/>
<rect x="54" y="104" width="18" height="9" rx="4" fill="#8a6868"/>
<rect x="86" y="102" width="18" height="13" rx="4" fill="#8a6868"/>
<rect x="20" y="96" width="34" height="12" rx="6" fill="#596775" stroke="#2d3944" stroke-width="4"/>
<rect x="18" y="100" width="18" height="6" rx="3" fill="#9cb2c5"/>
<rect x="47" y="97" width="8" height="8" rx="3" fill="#2c3137"/>
<rect x="54" y="122" width="10" height="18" rx="4" fill="#9c8a8f" stroke="#4b4246" stroke-width="4"/>
<rect x="96" y="122" width="10" height="18" rx="4" fill="#9c8a8f" stroke="#4b4246" stroke-width="4"/>
<path d="M110 100 C132 104, 146 116, 145 132" fill="none" stroke="#b38891" stroke-width="7" stroke-linecap="round"/>
</svg>