<svg xmlns="http://www.w3.org/2000/svg" viewBox="0 0 160 160">
<rect width="160" height="160" rx="24" fill="#1b1410"/>
<ellipse cx="80" cy="136" rx="45" ry="9" fill="#080605" opacity=".35"/>

<!-- tail behind body -->
<path d="M113 96 C139 90 145 116 124 127 C115 132 108 124 114 118 C125 108 116 101 108 105" fill="none" stroke="#c97d31" stroke-width="11" stroke-linecap="round"/>
<path d="M116 96 C137 93 141 113 125 122" fill="none" stroke="#f0b56f" stroke-width="5" stroke-linecap="round" opacity=".8"/>

<!-- body / legs -->
<rect x="50" y="90" width="62" height="38" rx="15" fill="#c97d31" stroke="#673816" stroke-width="4"/>
<rect x="46" y="94" width="70" height="32" rx="13" fill="#647482" stroke="#2f3b45" stroke-width="4"/>
<rect x="55" y="103" width="18" height="11" rx="4" fill="#91a5b7"/>
<rect x="84" y="101" width="21" height="15" rx="4" fill="#91a5b7"/>
<path d="M73 94 V126" stroke="#2f3b45" stroke-width="4"/>
<rect x="52" y="124" width="12" height="21" rx="5" fill="#c97d31" stroke="#673816" stroke-width="4"/>
<rect x="96" y="124" width="12" height="21" rx="5" fill="#c97d31" stroke="#673816" stroke-width="4"/>

<!-- pistol arm -->
<rect x="27" y="91" width="38" height="14" rx="7" fill="#485560" stroke="#263039" stroke-width="4"/>
<rect x="21" y="94" width="20" height="7" rx="3" fill="#91a5b7"/>
<rect x="56" y="94" width="10" height="10" rx="4" fill="#263039"/>
<rect x="30" y="106" width="12" height="24" rx="5" fill="#c97d31" stroke="#673816" stroke-width="4"/>

<!-- head -->
<path d="M42 54 L54 21 L67 51" fill="#c97d31" stroke="#673816" stroke-width="4" stroke-linejoin="round"/>
<path d="M118 54 L106 21 L93 51" fill="#c97d31" stroke="#673816" stroke-width="4" stroke-linejoin="round"/>
<path d="M51 56 C52 35 65 26 80 26 C95 26 108 35 109 56 C112 78 100 94 80 96 C60 94 48 78 51 56Z" fill="#c97d31" stroke="#673816" stroke-width="4"/>
<path d="M58 70 C62 58 70 54 80 54 C90 54 98 58 102 70 C100 84 92 90 80 90 C68 90 60 84 58 70Z" fill="#f4e8d3"/>
<path d="M62 40 C69 33 91 33 98 40" stroke="#e6a15d" stroke-width="5" stroke-linecap="round"/>
<circle cx="68" cy="61" r="4" fill="#1b1410"/>
<circle cx="92" cy="61" r="4" fill="#1b1410"/>
<circle cx="80" cy="72" r="4.5" fill="#1b1410"/>
<path d="M73 80 Q80 85 87 80" fill="none" stroke="#7b4b2a" stroke-width="3" stroke-linecap="round"/>
<path d="M58 50 L71 55" stroke="#8c4f20" stroke-width="3" stroke-linecap="round" opacity=".65"/>
<path d="M102 50 L89 55" stroke="#8c4f20" stroke-width="3" stroke-linecap="round" opacity=".65"/>

<!-- collar -->
<path d="M63 91 Q80 99 97 91" fill="none" stroke="#34414b" stroke-width="7" stroke-linecap="round"/>
<circle cx="80" cy="95" r="4" fill="#ffd970" stroke="#8d671b" stroke-width="2"/>
</svg>