<svg xmlns="http://www.w3.org/2000/svg" viewBox="0 0 160 160">
<rect width="160" height="160" rx="24" fill="#1b1410"/>
<ellipse cx="80" cy="132" rx="44" ry="10" fill="#0d0907" opacity="0.35"/>
<path d="M42 54 L54 22 L66 52" fill="#b96e2a" stroke="#5e3314" stroke-width="4"/>
<path d="M118 54 L106 22 L94 52" fill="#b96e2a" stroke="#5e3314" stroke-width="4"/>
<circle cx="80" cy="60" r="36" fill="#c97d31" stroke="#6a3b18" stroke-width="4"/>
<path d="M58 70 C66 56, 94 56, 102 70 C97 88, 63 88, 58 70" fill="#f4e8d3"/>
<circle cx="68" cy="58" r="4" fill="#1b1410"/>
<circle cx="92" cy="58" r="4" fill="#1b1410"/>
<circle cx="80" cy="69" r="4" fill="#1b1410"/>
<path d="M73 76 Q80 82 87 76" fill="none" stroke="#7a4c2c" stroke-width="3" stroke-linecap="round"/>
<rect x="48" y="92" width="64" height="34" rx="12" fill="#687989" stroke="#36424d" stroke-width="4"/>
<rect x="56" y="102" width="20" height="12" rx="4" fill="#8ca0b4"/>
<rect x="84" y="100" width="20" height="16" rx="4" fill="#8ca0b4"/>
<rect x="98" y="84" width="12" height="42" rx="5" fill="#c97d31" stroke="#6a3b18" stroke-width="4"/>
<rect x="24" y="92" width="38" height="14" rx="7" fill="#4b5662" stroke="#263039" stroke-width="4"/>
<rect x="22" y="96" width="18" height="7" rx="3" fill="#8da2b5"/>
<rect x="53" y="94" width="10" height="10" rx="4" fill="#313b45"/>
<rect x="26" y="108" width="12" height="24" rx="5" fill="#c97d31" stroke="#6a3b18" stroke-width="4"/>
<rect x="50" y="124" width="12" height="20" rx="5" fill="#c97d31" stroke="#6a3b18" stroke-width="4"/>
<rect x="98" y="124" width="12" height="20" rx="5" fill="#c97d31" stroke="#6a3b18" stroke-width="4"/>
<path d="M112 100 C132 102, 138 118, 126 126" fill="none" stroke="#c97d31" stroke-width="8" stroke-linecap="round"/>
<path d="M118 98 L132 88" stroke="#6a3b18" stroke-width="4" stroke-linecap="round"/>
</svg>